<?xml version="1.0" standalone="no"?><!DOCTYPE svg PUBLIC "-//W3C//DTD SVG 1.1//EN" "http://www.w3.org/Graphics/SVG/1.1/DTD/svg11.dtd"><svg t="1512975986637" class="icon" style="" viewBox="0 0 1024 1024" version="1.1" xmlns="http://www.w3.org/2000/svg" p-id="3201" xmlns:xlink="http://www.w3.org/1999/xlink" width="32" height="32"><defs><style type="text/css"></style></defs><path d="M512.943488 62.201667c-247.52549 0-448.185602 200.661136-448.185602 448.185602S265.419022 958.573895 512.943488 958.573895 961.130114 757.912759 961.130114 510.387269 760.468978 62.201667 512.943488 62.201667zM711.769836 652.288117c15.717983 15.717983 15.717983 41.204447 0 56.927547-15.721053 15.717983-41.206494 15.717983-56.927547 0L512.524956 566.896284 370.207623 709.215664c-15.721053 15.717983-41.206494 15.717983-56.924477 0-15.7231-15.7231-15.7231-41.209564 0-56.927547l142.314263-142.317333L313.282123 367.651404c-15.7231-15.717983-15.7231-41.204447 0-56.927547 15.717983-15.717983 41.204447-15.717983 56.924477 0l142.317333 142.320403 142.317333-142.320403c15.721053-15.717983 41.206494-15.717983 56.927547 0 15.717983 15.7231 15.717983 41.209564 0 56.927547L569.452503 509.970784 711.769836 652.288117z" p-id="3202"></path></svg>