<?xml version="1.0" standalone="no"?><!DOCTYPE svg PUBLIC "-//W3C//DTD SVG 1.1//EN" "http://www.w3.org/Graphics/SVG/1.1/DTD/svg11.dtd"><svg t="1515389525377" class="icon" style="" viewBox="0 0 1024 1024" version="1.1" xmlns="http://www.w3.org/2000/svg" p-id="5966" xmlns:xlink="http://www.w3.org/1999/xlink" width="60" height="60"><defs><style type="text/css"></style></defs><path d="M0 512c0 281.6 230.4 512 512 512s512-230.4 512-512S793.6 0 512 0 0 227.84 0 512z" fill="#FA6C5D" p-id="5967"></path><path d="M263.68 798.72c-20.48 0-35.84-15.36-35.84-35.84 0-10.24 5.12-17.92 10.24-25.6L734.72 238.08c15.36-15.36 38.4-15.36 51.2 0 15.36 15.36 15.36 38.4 0 51.2L289.28 785.92c-7.68 7.68-15.36 12.8-25.6 12.8z" fill="#FFFFFF" p-id="5968"></path><path d="M760.32 798.72c-10.24 0-17.92-5.12-25.6-10.24L238.08 289.28c-15.36-15.36-15.36-38.4 0-51.2 15.36-15.36 38.4-15.36 51.2 0l499.2 499.2c15.36 15.36 15.36 38.4 0 51.2-7.68 5.12-17.92 10.24-28.16 10.24z" fill="#FFFFFF" p-id="5969"></path></svg>