<?xml version="1.0" encoding="UTF-8"?>
<svg width="130px" height="158px" viewBox="0 0 130 158" version="1.1" xmlns="http://www.w3.org/2000/svg" xmlns:xlink="http://www.w3.org/1999/xlink">
    <!-- Generator: Sketch 47.1 (45422) - http://www.bohemiancoding.com/sketch -->
    <title>Group 2</title>
    <desc>Created with Sketch.</desc>
    <defs></defs>
    <g id="接单" stroke="none" stroke-width="1" fill="none" fill-rule="evenodd" opacity="0.132246377">
        <g id="接单-9" transform="translate(-255.000000, -285.000000)">
            <g id="Group-2" transform="translate(241.000000, 285.000000)">
                <g id="icon/reject">
                    <path d="M130.662413,19.4023996 C127.856881,19.4339996 125.588783,21.1941196 125.588783,24.1423996 L125.588783,24.1487196 L125.588783,44.7961596 C125.687952,47.2893996 123.726959,49.3971196 121.20294,49.4950796 C121.154955,49.5013996 121.103771,49.5013996 121.058985,49.5013996 L36.9314124,50.1112796 C34.1162834,50.1112796 32.3984148,47.7570796 32.3984148,45.3965596 L32.3984148,24.7522796 C32.5039822,22.2558796 30.5429889,20.1513196 28.0189698,20.0501996 C27.9677856,20.0501996 27.9261985,20.0501996 27.8750143,20.0470396 L25.0598853,20.0470396 C17.7277537,19.4308396 14.3463999,24.1487196 14.3463999,30.6551596 L14.3463999,145.60964 C14.3463999,150.93424 19.4168312,157.99052 26.214728,157.99052 L131.785266,157.99052 C137.425121,157.99052 143.653594,151.52516 143.653594,145.61912 L143.653594,30.0294796 C143.653594,24.7175196 139.696418,19.4023996 133.474343,19.4023996 L130.662413,19.4023996 Z" id="Clip-2" fill="#333333"></path>
                    <path d="M66.1703986,0 C61.2850386,0 57.3002786,3.94052 57.2623586,8.82904 C57.3603186,11.3286 55.4200786,13.43316 52.9236786,13.5406 L52.7814786,13.5406 L49.4413586,13.5406 C46.6637186,13.5406 44.9667986,15.8948 44.9667986,18.25532 L44.9667986,32.39316 C44.9667986,35.33828 47.2072386,37.0984 49.4413586,37.0984 L108.558639,37.0984 C111.336279,37.0984 113.033199,34.74736 113.033199,32.39316 L113.033199,18.25532 C113.140639,15.75892 111.200399,13.6512 108.703999,13.54376 C108.659759,13.5406 108.612359,13.5406 108.558639,13.5406 L105.784159,13.5406 L105.777839,13.5406 C103.015999,13.5406 101.312759,11.18956 101.312759,8.82588 C101.312759,4.108 97.4038386,0 92.3983986,0 L66.1703986,0 Z" id="Clip-5" fill="#333333"></path>
                    <path d="M69.52,19.6394 C69.52,24.9482 73.9914,29.66608 79.00632,29.66608 C84.02124,29.66608 88.48632,26.11424 88.48632,19.6394 C88.48632,14.3306 84.58056,9.61588 79.00632,9.61588 C73.9914,9.61588 69.52,14.3306 69.52,19.6394 Z" id="Clip-8" fill="#CCCCCC"></path>
                    <circle id="Oval" fill="#CCCCCC" cx="47.4" cy="97.96" r="9.48"></circle>
                    <circle id="Oval-Copy" fill="#CCCCCC" cx="79" cy="97.96" r="9.48"></circle>
                    <circle id="Oval-Copy-2" fill="#CCCCCC" cx="110.6" cy="97.96" r="9.48"></circle>
                </g>
            </g>
        </g>
    </g>
</svg>