<?xml version="1.0" encoding="UTF-8"?>
<svg width="60px" height="60px" viewBox="0 0 60 60" version="1.1" xmlns="http://www.w3.org/2000/svg" xmlns:xlink="http://www.w3.org/1999/xlink">
    <!-- Generator: Sketch 48.1 (47250) - http://www.bohemiancoding.com/sketch -->
    <title>icon_user</title>
    <desc>Created with Sketch.</desc>
    <defs></defs>
    <g id="icon/uesr" stroke="none" stroke-width="1" fill="none" fill-rule="evenodd">
        <rect id="Rectangle" x="0" y="0" width="60" height="60"></rect>
        <path d="M42.6145268,50.771 C51.1672067,46.249 56.9999,37.285 56.9999,26.951 C56.9999,12.067 44.9117384,-1.42108547e-14 29.9993991,-1.42108547e-14 C15.0880616,-1.42108547e-14 2.9999,12.067 2.9999,26.951 C2.9999,37.284 8.83159143,46.249 17.3842713,50.771 C12.674637,52.84 8.56810838,56.025 5.41132094,60 L54.5864754,60 C51.4306898,56.026 47.3241611,52.84 42.6145268,50.771" id="Fill-1" fill="#999999"></path>
        <path d="M23.9423,24.1562 C23.9423,26.0892 22.3763,27.6562 20.4423,27.6562 C18.5093,27.6562 16.9423,26.0892 16.9423,24.1562 C16.9423,22.2232 18.5093,20.6562 20.4423,20.6562 C22.3763,20.6562 23.9423,22.2232 23.9423,24.1562" id="Fill-4" fill="#F5F5F5"></path>
        <path d="M42.9579,24.1562 C42.9579,26.0892 41.3919,27.6562 39.4579,27.6562 C37.5249,27.6562 35.9579,26.0892 35.9579,24.1562 C35.9579,22.2232 37.5249,20.6562 39.4579,20.6562 C41.3919,20.6562 42.9579,22.2232 42.9579,24.1562" id="Fill-6" fill="#F5F5F5"></path>
    </g>
</svg>