<?xml version="1.0" encoding="UTF-8"?>
<svg width="40px" height="40px" viewBox="0 0 40 40" version="1.1" xmlns="http://www.w3.org/2000/svg" xmlns:xlink="http://www.w3.org/1999/xlink">
    <!-- Generator: Sketch 48.1 (47250) - http://www.bohemiancoding.com/sketch -->
    <title>icon_binding</title>
    <desc>Created with Sketch.</desc>
    <defs></defs>
    <g id="Cell/Left-Icon/Binding" stroke="none" stroke-width="1" fill="none" fill-rule="evenodd">
        <g id="Page-1" transform="translate(0.000000, 5.000000)">
            <path d="M38,0 L14,0 C12.9,0 12,0.9 12,2 L12,6.875 L26,6.875 C28.206,6.875 30,8.669 30,10.875 L30,22 L38,22 C39.1,22 40,21.1 40,20 L40,2 C40,0.9 39.1,0 38,0" id="Fill-1" fill="#333333"></path>
            <path d="M14,24 C11.794,24 10,22.206 10,20 L10,8.875 L2,8.875 C0.9,8.875 0,9.775 0,10.875 L0,28.875 C0,29.975 0.9,30.875 2,30.875 L26,30.875 C27.1,30.875 28,29.975 28,28.875 L28,24 L14,24 Z" id="Fill-3" fill="#333333"></path>
            <path d="M14.375,23.0898 C12.514,23.0898 11,21.5758 11,19.7148 L11,7.7848 L25.625,7.7848 C27.486,7.7848 29,9.2988 29,11.1598 L29,23.0898 L14.375,23.0898 Z" id="Fill-5" fill="#333333"></path>
            <path d="M25.625,6.2852 L12.5,6.2852 L9.5,6.2852 L9.5,9.2852 L9.5,19.7152 C9.5,22.4032 11.687,24.5902 14.375,24.5902 L27.5,24.5902 L30.5,24.5902 L30.5,21.5902 L30.5,11.1602 C30.5,8.4722 28.313,6.2852 25.625,6.2852 M25.625,9.2852 C26.656,9.2852 27.5,10.1292 27.5,11.1602 L27.5,21.5902 L14.375,21.5902 C13.344,21.5902 12.5,20.7462 12.5,19.7152 L12.5,9.2852 L25.625,9.2852" id="Fill-7" fill="#CCCCCC"></path>
        </g>
    </g>
</svg>