<?xml version="1.0" encoding="UTF-8"?>
<svg width="40px" height="40px" viewBox="0 0 40 40" version="1.1" xmlns="http://www.w3.org/2000/svg" xmlns:xlink="http://www.w3.org/1999/xlink">
    <!-- Generator: Sketch 48.1 (47250) - http://www.bohemiancoding.com/sketch -->
    <title>icon_help</title>
    <desc>Created with Sketch.</desc>
    <defs>
        <polygon id="path-1" points="0 12.4629 0 0.9299 5.3177 0.9299 5.3177 12.4629"></polygon>
        <polygon id="path-3" points="6.9829 7 0.7189 7 0.7189 0.7352 6.9829 0.7352"></polygon>
        <polygon id="path-5" points="6 0.9299 6 12.4629 0.6823 12.4629 0.6823 0.9299 6 0.9299"></polygon>
    </defs>
    <g id="Cell/Left-Icon/Help" stroke="none" stroke-width="1" fill="none" fill-rule="evenodd">
        <g id="Page-1" transform="translate(0.000000, 2.000000)">
            <path d="M25.8179,34.6067 C31.0609,34.2077 35.4059,30.6117 36.8539,25.7177 C37.0039,25.7677 38.8009,14.2317 37.3539,14.2317 L37.3539,12.4347 C37.3539,5.5437 31.7599,0.0007 24.9189,0.0007 L15.1309,0.0007 C8.2399,0.0007 2.6969,5.5927 2.6969,12.4347 L2.6969,14.1817 C1.1989,14.1817 5.2939,24.4687 5.2939,23.0207 L5.2939,12.4347 C5.2939,7.0417 9.6879,2.6467 15.0809,2.6467 L24.8689,2.6467 C30.2619,2.6467 34.6569,7.0417 34.6569,12.4347 L34.6569,22.1717 C34.6569,27.3157 30.6619,31.5607 25.5679,31.9107 L23.6709,31.9107 C23.1709,30.8617 23.1709,35.6057 23.6709,34.5067 L25.8179,34.6067 Z" id="Fill-1" fill="#999999"></path>
            <g id="Group-5" transform="translate(0.000000, 13.280500)">
                <mask id="mask-2" fill="white">
                    <use xlink:href="#path-1"></use>
                </mask>
                <g id="Clip-4"></g>
                <path d="M2.6587,12.4629 C1.1967,12.4629 -0.0003,11.2669 -0.0003,9.8049 L-0.0003,3.5889 C-0.0003,2.1269 1.1967,0.9299 2.6587,0.9299 C4.1207,0.9299 5.3177,2.1269 5.3177,3.5889 L5.3177,9.8049 C5.3177,11.2669 4.1207,12.4629 2.6587,12.4629" id="Fill-3" fill="#333333" mask="url(#mask-2)"></path>
            </g>
            <path d="M24.6689,30.138 L25.7679,30.138 C29.6629,30.138 32.8589,26.943 32.8589,23.047 L32.8589,11.511 C32.8589,7.617 29.6629,4.42 25.7679,4.42 L14.2319,4.42 C10.3369,4.42 7.1409,7.617 7.1409,11.511 L7.1409,23.047 C7.1409,26.943 10.3369,30.138 14.2319,30.138 L17.1279,30.138 C18.0269,29.039 19.3759,28.34 20.9239,28.34 C22.4219,28.39 23.7709,29.089 24.6689,30.138" id="Fill-6" fill="#333333"></path>
            <path d="M28.5059,20.7503 L28.5059,20.8503 C28.5059,23.5463 24.5109,25.7433 19.6169,25.7433 C14.7229,25.7433 10.7289,23.5463 10.7289,20.8503 L10.7289,20.7503 L28.5059,20.7503 Z" id="Fill-8" fill="#999999"></path>
            <g id="Group-12" transform="translate(17.000000, 29.280500)">
                <mask id="mask-4" fill="white">
                    <use xlink:href="#path-3"></use>
                </mask>
                <g id="Clip-11"></g>
                <path d="M6.9829,3.8682 C6.9829,5.5972 5.5809,7.0002 3.8509,7.0002 C2.1209,7.0002 0.7189,5.5972 0.7189,3.8682 C0.7189,2.1382 2.1209,0.7352 3.8509,0.7352 C5.5809,0.7352 6.9829,2.1382 6.9829,3.8682" id="Fill-10" fill="#333333" mask="url(#mask-4)"></path>
            </g>
            <g id="Group-15" transform="translate(34.000000, 13.280500)">
                <mask id="mask-6" fill="white">
                    <use xlink:href="#path-5"></use>
                </mask>
                <g id="Clip-14"></g>
                <path d="M3.3413,12.4629 C1.8793,12.4629 0.6823,11.2669 0.6823,9.8049 L0.6823,3.5889 C0.6823,2.1269 1.8793,0.9299 3.3413,0.9299 C4.8033,0.9299 6.0003,2.1269 6.0003,3.5889 L6.0003,9.8049 C6.0003,11.2669 4.8033,12.4629 3.3413,12.4629" id="Fill-13" fill="#333333" mask="url(#mask-6)"></path>
            </g>
        </g>
    </g>
</svg>