<?xml version="1.0" encoding="UTF-8"?>
<svg width="40px" height="40px" viewBox="0 0 40 40" version="1.1" xmlns="http://www.w3.org/2000/svg" xmlns:xlink="http://www.w3.org/1999/xlink">
    <!-- Generator: Sketch 48.1 (47250) - http://www.bohemiancoding.com/sketch -->
    <title>icon_setting</title>
    <desc>Created with Sketch.</desc>
    <defs></defs>
    <g id="Cell/Left-Icon/Setting" stroke="none" stroke-width="1" fill="none" fill-rule="evenodd">
        <path d="M34.4685,21.9717 L38.6945,25.2577 C39.1315,25.5737 39.1945,26.0097 38.8815,26.5737 L34.8435,33.5217 C34.5935,33.9597 34.1865,34.0847 33.6235,33.8967 L28.6465,31.9247 C27.3325,32.8647 26.2055,33.5217 25.2665,33.8967 L24.5155,39.1557 C24.3895,39.7187 24.0765,39.9997 23.5765,39.9997 L15.5015,39.9997 C14.9995,39.9997 14.6865,39.7187 14.5625,39.1557 L13.8115,33.8967 C12.6215,33.3967 11.4945,32.7397 10.4305,31.9247 L5.4545,33.8967 C4.8905,34.0847 4.4835,33.9597 4.2335,33.5217 L0.1965,26.5737 C-0.1175,26.0097 -0.0545,25.5737 0.3845,25.2577 L4.6095,21.9717 C4.5465,21.5347 4.5155,20.8777 4.5155,19.9997 C4.5155,19.1237 4.5465,18.4667 4.6095,18.0287 L0.3845,14.7427 C-0.0545,14.4297 -0.1175,13.9907 0.1965,13.4267 L4.2335,6.4787 C4.4835,6.0417 4.8905,5.9147 5.4545,6.1037 L10.4305,8.0757 C11.7455,7.1357 12.8725,6.4787 13.8115,6.1037 L14.5625,0.8447 C14.6865,0.2817 14.9995,-0.0003 15.5015,-0.0003 L23.5765,-0.0003 C24.0765,-0.0003 24.3895,0.2817 24.5155,0.8447 L25.2665,6.1037 C26.4545,6.6057 27.5815,7.2627 28.6465,8.0757 L33.6235,6.1037 C34.1865,5.9147 34.5935,6.0417 34.8435,6.4787 L38.8815,13.4267 C39.1945,13.9907 39.1315,14.4297 38.6945,14.7427 L34.4685,18.0287 C34.5305,18.4667 34.5625,19.1237 34.5625,19.9997 C34.5625,20.8777 34.5305,21.5347 34.4685,21.9717" id="Fill-1" fill="#333333"></path>
        <path d="M14.5618,24.9766 C15.9378,26.3546 17.5968,27.0416 19.5388,27.0416 C21.4778,27.0416 23.1368,26.3546 24.5148,24.9766 C25.8908,23.6006 26.5808,21.9416 26.5808,19.9996 C26.5808,18.0606 25.8908,16.4016 24.5148,15.0236 C23.1368,13.6476 21.4778,12.9576 19.5388,12.9576 C17.5968,12.9576 15.9378,13.6476 14.5618,15.0236 C13.1838,16.4016 12.4958,18.0606 12.4958,19.9996 C12.4958,21.9416 13.1838,23.6006 14.5618,24.9766" id="Fill-4" fill="#CCCCCC"></path>
    </g>
</svg>