<?xml version="1.0" encoding="UTF-8"?>
<svg width="60px" height="60px" viewBox="0 0 60 60" version="1.1" xmlns="http://www.w3.org/2000/svg" xmlns:xlink="http://www.w3.org/1999/xlink">
    <!-- Generator: Sketch 48.1 (47250) - http://www.bohemiancoding.com/sketch -->
    <title>icon_task_sel</title>
    <desc>Created with Sketch.</desc>
    <defs>
        <polygon id="path-1" points="48.5066 0 0.0006 0 0.0006 59.9998 48.5066 59.9998"></polygon>
    </defs>
    <g id="icon/task_sel" stroke="none" stroke-width="1" fill="none" fill-rule="evenodd">
        <rect id="Rectangle" x="0" y="0" width="60" height="60"></rect>
        <g id="Page-1" transform="translate(6.000000, 0.000000)">
            <g id="Group-3">
                <mask id="mask-2" fill="white">
                    <use xlink:href="#path-1"></use>
                </mask>
                <g id="Clip-2"></g>
                <path d="M41.7296,9.1748 L41.7296,17.0138 C41.7676,17.9618 41.0316,18.7608 40.0836,18.7998 C40.0656,18.8008 40.0476,18.8008 40.0306,18.8018 L8.4736,19.0328 C7.4176,19.0328 6.7746,18.1398 6.7746,17.2418 L6.7746,9.4038 C6.8136,8.4558 6.0766,7.6558 5.1286,7.6168 C5.1116,7.6168 5.0926,7.6158 5.0756,7.6158 L4.0196,7.6158 C1.2686,7.3818 0.0006,9.1748 0.0006,11.6458 L0.0006,55.2998 C0.0006,57.3198 1.9036,59.9998 4.4536,59.9998 L44.0536,59.9998 C46.1696,59.9998 48.5066,57.5448 48.5066,55.3028 L48.5066,11.4068 C48.5066,9.3888 47.0216,7.3718 44.6876,7.3718 L43.6326,7.3718 C42.5806,7.3848 41.7296,8.0528 41.7296,9.1718 L41.7296,9.1748 Z M34.3086,5.1428 C33.2586,5.1428 32.6126,4.2488 32.6126,3.3528 C32.6126,1.5618 31.1266,-0.0002 29.2266,-0.0002 L19.2676,-0.0002 C17.4106,-0.0002 15.8986,1.4968 15.8816,3.3558 C15.9206,4.3028 15.1846,5.1028 14.2366,5.1418 C14.2186,5.1418 14.2016,5.1428 14.1836,5.1428 L12.9146,5.1428 C11.8596,5.1428 11.2156,6.0358 11.2156,6.9328 L11.2156,12.3018 C11.2156,13.4208 12.0636,14.0888 12.9146,14.0888 L35.3636,14.0888 C36.4186,14.0888 37.0626,13.1958 37.0626,12.3018 L37.0626,6.9328 C37.1026,5.9858 36.3676,5.1848 35.4196,5.1448 C35.4016,5.1438 35.3826,5.1428 35.3636,5.1428 L34.3116,5.1428 L34.3086,5.1428 Z" id="Fill-1" fill="#333333" mask="url(#mask-2)"></path>
            </g>
            <path d="M27.2531,7.1562 C27.2531,8.8132 25.9101,10.1562 24.2531,10.1562 C22.5971,10.1562 21.2531,8.8132 21.2531,7.1562 C21.2531,5.4992 22.5971,4.1562 24.2531,4.1562 C25.9101,4.1562 27.2531,5.4992 27.2531,7.1562" id="Fill-4" fill="#999999"></path>
        </g>
    </g>
</svg>