<?xml version="1.0" encoding="UTF-8"?>
<svg width="40px" height="40px" viewBox="0 0 40 40" version="1.1" xmlns="http://www.w3.org/2000/svg" xmlns:xlink="http://www.w3.org/1999/xlink">
    <!-- Generator: Sketch 47.1 (45422) - http://www.bohemiancoding.com/sketch -->
    <title>icon/uesr_sel</title>
    <desc>Created with Sketch.</desc>
    <defs>
        <polygon id="path-1" points="1.35525272e-20 0.28275 1.35525272e-20 35 34.705875 35 34.705875 0.28275"></polygon>
        <polygon id="path-3" points="7.393825 0 14.404 0 14.404 14.0205 0.38365 14.0205 0.38365 0 7.393825 0"></polygon>
    </defs>
    <g id="接单" stroke="none" stroke-width="1" fill="none" fill-rule="evenodd">
        <g id="接单-1" transform="translate(-60.000000, -1051.000000)">
            <g id="icon/radar_large" transform="translate(60.000000, 1051.000000)">
                <rect id="Rectangle-7" fill="#FFFFFF" x="0" y="0" width="40" height="40"></rect>
                <g id="Page-1" stroke-width="1">
                    <polygon id="Fill-1" fill="#FF3341" points="24.1971 13.771 26.2171 15.791 19.1476 22.8605 17.1276 20.841"></polygon>
                    <g id="Group-12">
                        <g id="Group-4" transform="translate(0.000000, 5.000000)">
                            <mask id="mask-2" fill="white">
                                <use xlink:href="#path-1"></use>
                            </mask>
                            <g id="Clip-3"></g>
                            <path d="M35.31475,27.19825 L8.79025,0.67375 C8.53975,0.42325 8.20025,0.28275 7.84575,0.28275 C7.49175,0.28275 7.15225,0.42325 6.90175,0.67375 C0.07675,7.49875 -0.82875,18.02525 4.18475,25.80775 L2.88325,27.10975 C1.37325,28.61975 1.36925,31.06325 2.87425,32.56875 L3.41975,33.11375 C4.92475,34.61875 7.36825,34.61525 8.87825,33.10525 L10.17825,31.80575 C13.38825,33.88225 17.13175,35.00025 21.05025,35.00025 C26.43525,35.00025 31.50125,32.89975 35.31475,29.08625 C35.83625,28.56475 35.83625,27.71975 35.31475,27.19825" id="Fill-2" fill="#FF3341" mask="url(#mask-2)"></path>
                        </g>
                        <path d="M28.742,15.95945 C30.0435,14.65745 30.0435,12.54795 28.742,11.24645 C27.44,9.94495 25.3305,9.94495 24.029,11.24645 C22.7275,12.54795 22.7275,14.65745 24.029,15.95945 C25.3305,17.26095 27.44,17.26095 28.742,15.95945" id="Fill-5" fill="#FF3341"></path>
                        <g id="Group-9" transform="translate(25.500000, 0.000000)">
                            <mask id="mask-4" fill="white">
                                <use xlink:href="#path-3"></use>
                            </mask>
                            <g id="Clip-8"></g>
                            <path d="M13.06865,14.0205 C12.33115,14.0205 11.73315,13.423 11.73315,12.685 C11.73315,7.1625 7.24115,2.6705 1.71865,2.6705 C0.98115,2.6705 0.38365,2.0725 0.38365,1.3355 C0.38365,0.5975 0.98115,0 1.71865,0 C8.71315,0 14.40415,5.6905 14.40415,12.685 C14.40415,13.423 13.80615,14.0205 13.06865,14.0205" id="Fill-7" fill="#FF3341" mask="url(#mask-4)"></path>
                        </g>
                        <path d="M33.929,14.688 C33.1915,14.688 32.5935,14.0905 32.5935,13.353 C32.5935,10.021 29.8825,7.311 26.551,7.311 C25.814,7.311 25.2155,6.713 25.2155,5.9755 C25.2155,5.2385 25.814,4.64 26.551,4.64 C31.356,4.64 35.2645,8.549 35.2645,13.353 C35.2645,14.0905 34.6665,14.688 33.929,14.688" id="Fill-10" fill="#FF3341"></path>
                    </g>
                </g>
            </g>
        </g>
    </g>
</svg>