<?xml version="1.0" encoding="UTF-8"?>
<svg width="40px" height="41px" viewBox="0 0 40 41" version="1.1" xmlns="http://www.w3.org/2000/svg" xmlns:xlink="http://www.w3.org/1999/xlink">
    <!-- Generator: Sketch 47.1 (45422) - http://www.bohemiancoding.com/sketch -->
    <title>icon/uesr_sel</title>
    <desc>Created with Sketch.</desc>
    <defs>
        <polygon id="path-1" points="1.47236761e-20 0.28275 1.47236761e-20 38.0001098 37.7050018 38.0001098 37.7050018 0.28275"></polygon>
        <polygon id="path-3" points="7.393825 0 14.404 0 14.404 14.0205 0.38365 14.0205 0.38365 0 7.393825 0"></polygon>
    </defs>
    <g id="我的" stroke="none" stroke-width="1" fill="none" fill-rule="evenodd">
        <g id="3.-我的" transform="translate(-60.000000, -1051.000000)">
            <g id="icon/radar_large2" transform="translate(60.000000, 1051.000000)">
                <rect id="Rectangle-7" fill="#FFFFFF" x="0" y="0" width="40" height="40"></rect>
                <g id="Page-1" stroke-width="1" transform="translate(0.500000, 0.000000)">
                    <polygon id="Fill-1" stroke="#979797" stroke-width="2" points="23.6971 13.771 25.7171 15.791 18.6476 22.8605 16.6276 20.841"></polygon>
                    <g id="Group-12">
                        <g id="Group-4" transform="translate(0.000000, 5.000000)">
                            <mask id="mask-2" fill="white">
                                <use xlink:href="#path-1"></use>
                            </mask>
                            <g id="Clip-3"></g>
                            <path d="M35.31475,27.19825 L8.79025,0.67375 C8.53975,0.42325 8.20025,0.28275 7.84575,0.28275 C7.49175,0.28275 7.15225,0.42325 6.90175,0.67375 C0.07675,7.49875 -0.82875,18.02525 4.18475,25.80775 L2.88325,27.10975 C1.37325,28.61975 1.36925,31.06325 2.87425,32.56875 L3.41975,33.11375 C4.92475,34.61875 7.36825,34.61525 8.87825,33.10525 L10.17825,31.80575 C13.38825,33.88225 17.13175,35.00025 21.05025,35.00025 C26.43525,35.00025 31.50125,32.89975 35.31475,29.08625 C35.83625,28.56475 35.83625,27.71975 35.31475,27.19825" id="Fill-2" stroke="#979797" stroke-width="2" mask="url(#mask-2)"></path>
                        </g>
                        <path d="M28.242,15.95945 C29.5435,14.65745 29.5435,12.54795 28.242,11.24645 C26.94,9.94495 24.8305,9.94495 23.529,11.24645 C22.2275,12.54795 22.2275,14.65745 23.529,15.95945 C24.8305,17.26095 26.94,17.26095 28.242,15.95945" id="Fill-5" stroke="#979797" stroke-width="2"></path>
                        <g id="Group-9" transform="translate(25.000000, 0.000000)">
                            <mask id="mask-4" fill="white">
                                <use xlink:href="#path-3"></use>
                            </mask>
                            <g id="Clip-8"></g>
                            <path d="M13.06865,14.0205 C12.33115,14.0205 11.73315,13.423 11.73315,12.685 C11.73315,7.1625 7.24115,2.6705 1.71865,2.6705 C0.98115,2.6705 0.38365,2.0725 0.38365,1.3355 C0.38365,0.5975 0.98115,0 1.71865,0 C8.71315,0 14.40415,5.6905 14.40415,12.685 C14.40415,13.423 13.80615,14.0205 13.06865,14.0205" id="Fill-7" stroke="#979797" stroke-width="2" mask="url(#mask-4)"></path>
                        </g>
                        <path d="M33.429,14.688 C32.6915,14.688 32.0935,14.0905 32.0935,13.353 C32.0935,10.021 29.3825,7.311 26.051,7.311 C25.314,7.311 24.7155,6.713 24.7155,5.9755 C24.7155,5.2385 25.314,4.64 26.051,4.64 C30.856,4.64 34.7645,8.549 34.7645,13.353 C34.7645,14.0905 34.1665,14.688 33.429,14.688" id="Fill-10" stroke="#979797" stroke-width="2"></path>
                    </g>
                </g>
            </g>
        </g>
    </g>
</svg>