<?xml version="1.0" standalone="no"?><!DOCTYPE svg PUBLIC "-//W3C//DTD SVG 1.1//EN" "http://www.w3.org/Graphics/SVG/1.1/DTD/svg11.dtd"><svg t="1515389463985" class="icon" style="" viewBox="0 0 1024 1024" version="1.1" xmlns="http://www.w3.org/2000/svg" p-id="5137" xmlns:xlink="http://www.w3.org/1999/xlink" width="60" height="60"><defs><style type="text/css"></style></defs><path d="M512.512 998.4a487.8976 487.8976 0 1 1 414.592-233.28 24.32 24.32 0 1 1-41.472-25.3056 439.68 439.68 0 0 0 49.28-114.496 438.8352 438.8352 0 1 0-194.816 259.7376 24.32 24.32 0 0 1 25.344 41.4976A484.1728 484.1728 0 0 1 512.512 998.4zM328.32 550.5792l122.624 124.544a27.0208 27.0208 0 0 0 38.528 0.5504 27.84 27.84 0 0 0-0.512-38.9888l-122.624-124.544a27.0208 27.0208 0 0 0-38.528-0.5504 27.84 27.84 0 0 0 0.512 38.9376z m372.352-164.224L451.2 636.16a26.9952 26.9952 0 1 0 38.144 38.1952l249.6-249.8432a27.0464 27.0464 0 1 0-38.272-38.208z" p-id="5138" fill="#52CC68"></path></svg>