<?xml version="1.0" standalone="no"?><!DOCTYPE svg PUBLIC "-//W3C//DTD SVG 1.1//EN" "http://www.w3.org/Graphics/SVG/1.1/DTD/svg11.dtd"><svg t="1512647066799" class="icon" style="" viewBox="0 0 1024 1024" version="1.1" xmlns="http://www.w3.org/2000/svg" p-id="2876" xmlns:xlink="http://www.w3.org/1999/xlink" width="20" height="20"><defs><style type="text/css"></style></defs><path d="M1024 862.208c0 88.064-71.68 161.792-161.792 161.792H161.792C71.68 1024 0 952.32 0 862.208V161.792C0 71.68 71.68 0 161.792 0h702.464C952.32 0 1024 71.68 1024 161.792v700.416z" fill="#FF6B06" p-id="2877"></path><path d="M198.656 294.912a67.584 61.44 0 1 0 135.168 0 67.584 61.44 0 1 0-135.168 0Z" fill="#FFFFFF" p-id="2878"></path><path d="M208.896 378.88l-43.008 65.536 77.824 49.152s53.248 26.624 26.624 77.824c-24.576 47.104-137.216 151.552-137.216 151.552l102.4 63.488c71.68-153.6 65.536-133.12 83.968-188.416 18.432-57.344 22.528-100.352-8.192-131.072-36.864-38.912-43.008-43.008-102.4-88.064z" fill="#FFFFFF" p-id="2879"></path><path d="M876.544 362.496s-22.528-174.08-401.408-65.536c16.384-28.672 24.576-47.104 24.576-47.104l-94.208-26.624s-38.912 124.928-106.496 182.272c0 0 65.536 38.912 65.536 36.864 18.432-18.432 34.816-38.912 51.2-57.344 14.336-6.144 30.72-12.288 43.008-18.432-18.432 30.72-45.056 79.872-73.728 108.544l40.96 34.816 57.344-57.344h34.816V512h-133.12v47.104h133.12v112.64h-4.096c-14.336 0-36.864-4.096-47.104-16.384-10.24-16.384-2.048-49.152-2.048-67.584H368.64l-4.096 2.048s-32.768 149.504 96.256 145.408c120.832 4.096 190.464-34.816 225.28-59.392l14.336 49.152 75.776-30.72-51.2-124.928-61.44 18.432 12.288 43.008c-16.384 12.288-32.768 20.48-53.248 26.624v-98.304h129.024V512h-129.024v-57.344h129.024v-47.104H520.192c16.384-20.48 28.672-38.912 32.768-51.2l-40.96-10.24c172.032-61.44 268.288-51.2 266.24 49.152v266.24s10.24 92.16-94.208 83.968l-57.344-12.288-12.288 53.248s243.712 69.632 264.192-118.784c22.528-186.368-2.048-305.152-2.048-305.152z" fill="#FFFFFF" p-id="2880"></path></svg>