<?xml version="1.0" encoding="UTF-8"?>
<svg width="36px" height="40px" viewBox="0 0 36 40" version="1.1" xmlns="http://www.w3.org/2000/svg" xmlns:xlink="http://www.w3.org/1999/xlink">
    <!-- Generator: Sketch 47.1 (45422) - http://www.bohemiancoding.com/sketch -->
    <title>icon/uesr_sel</title>
    <desc>Created with Sketch.</desc>
    <defs></defs>
    <g id="我的" stroke="none" stroke-width="1" fill="none" fill-rule="evenodd">
        <g id="3.-我的" transform="translate(-542.000000, -1054.000000)">
            <g id="icon/uesr_small" transform="translate(540.000000, 1054.000000)">
                <rect id="Rectangle" x="0" y="0" width="40" height="40"></rect>
                <path d="M28.4096845,33.8473333 C34.1114712,30.8326667 37.9999333,24.8566667 37.9999333,17.9673333 C37.9999333,8.04466667 29.9411589,-1.42108547e-14 19.9995994,-1.42108547e-14 C10.0587078,-1.42108547e-14 1.99993333,8.04466667 1.99993333,17.9673333 C1.99993333,24.856 5.88772762,30.8326667 11.5895142,33.8473333 C8.44975801,35.2266667 5.71207225,37.35 3.60754729,40 L36.3909836,40 C34.2871265,37.3506667 31.5494408,35.2266667 28.4096845,33.8473333" id="Fill-1" fill="#FF3341" fill-rule="evenodd"></path>
                <path d="M15.9615333,16.1041333 C15.9615333,17.3928 14.9175333,18.4374667 13.6282,18.4374667 C12.3395333,18.4374667 11.2948667,17.3928 11.2948667,16.1041333 C11.2948667,14.8154667 12.3395333,13.7708 13.6282,13.7708 C14.9175333,13.7708 15.9615333,14.8154667 15.9615333,16.1041333" id="Fill-4" fill="#F5F5F5" fill-rule="evenodd"></path>
                <path d="M28.6386,16.1041333 C28.6386,17.3928 27.5946,18.4374667 26.3052667,18.4374667 C25.0166,18.4374667 23.9719333,17.3928 23.9719333,16.1041333 C23.9719333,14.8154667 25.0166,13.7708 26.3052667,13.7708 C27.5946,13.7708 28.6386,14.8154667 28.6386,16.1041333" id="Fill-6" fill="#F5F5F5" fill-rule="evenodd"></path>
            </g>
        </g>
    </g>
</svg>