<?xml version="1.0" standalone="no"?><!DOCTYPE svg PUBLIC "-//W3C//DTD SVG 1.1//EN" "http://www.w3.org/Graphics/SVG/1.1/DTD/svg11.dtd"><svg t="1512975944084" class="icon" style="" viewBox="0 0 1024 1024" version="1.1" xmlns="http://www.w3.org/2000/svg" p-id="2401" xmlns:xlink="http://www.w3.org/1999/xlink" width="32" height="32"><defs><style type="text/css"></style></defs><path d="M835.869291 198.926352c-40.522035-41.238333-88.411712-73.983412-142.441091-97.211952-56.178275-24.251824-117.268312-37.349855-181.530528-39.191766-122.384731 0-236.583192 47.68502-321.311083 134.254822-40.522035 41.44299-72.448486 89.537324-94.653742 143.055061-22.716898 54.745678-34.280004 112.561207-34.280004 171.707005 0 98.235235 31.517138 191.763366 91.174578 270.760868l71.936844 75.92765c39.498751 32.745078 83.909264 58.224843 131.798941 75.927651 49.62926 18.21445 101.919057 27.526332 155.334466 27.526332 53.722394 0 106.216848-9.41421 156.050764-27.833317 48.094334-17.805136 92.607175-43.591886 132.208254-76.746278l71.834516-76.234635c58.941141-78.690517 90.048966-171.707005 90.048966-269.225942 0.204657-118.803238-44.615169-229.829519-126.170881-312.715499z m11.460778 455.463575c-18.316778 43.284901-44.615169 82.27201-77.974218 115.631058-33.461377 33.461377-72.346158 59.65744-115.631058 77.974218-44.819826 18.930748-92.504847 28.549615-141.622465 28.549616S415.29969 866.925952 370.479864 847.995203c-43.284901-18.316778-82.27201-44.615169-115.631058-77.974218-33.461377-33.461377-59.65744-72.346158-77.974218-115.631058-18.930748-44.819826-28.549615-92.504847-28.549615-141.622464s9.618867-96.802638 28.549615-141.622464c18.316778-43.284901 44.615169-82.27201 77.974218-115.631059 33.461377-33.461377 72.346158-59.65744 115.631058-77.974218 44.819826-18.930748 92.504847-28.549615 141.622464-28.549615s96.802638 9.618867 141.622465 28.549615c43.284901 18.316778 82.27201 44.615169 115.631058 77.974218 33.461377 33.461377 59.65744 72.346158 77.974218 115.631059 18.930748 44.819826 28.549615 92.504847 28.549615 141.622464 0 49.015289-9.618867 96.70031-28.549615 141.622464z" p-id="2402"></path><path d="M518.651344 638.119716c-15.04227 0-30.084541 6.242031-40.726691 16.884181-10.64215 10.64215-16.884181 25.684421-16.884181 40.726692s6.242031 30.084541 16.884181 40.726691c10.64215 10.64215 25.684421 16.884181 40.726691 16.884181 15.144599 0 30.084541-6.242031 40.726691-16.884181 10.64215-10.64215 16.884181-25.684421 16.884181-40.726691s-6.242031-30.084541-16.884181-40.726692c-10.539822-10.64215-25.582093-16.884181-40.726691-16.884181zM512.511642 263.495553c-40.931348 0-73.881083 12.279404-99.053862 36.940542-25.172779 24.661137-39.805736 58.531828-40.624363 89.844309-0.818627 31.210153 66.206455 24.763466 68.662336 9.311881 2.660538-16.372539 13.609673-42.773259 26.400719-54.745678 12.791046-11.972419 28.754272-18.009793 47.787349-18.009793 19.749375 0 35.507944 5.730389 47.071051 17.191166 11.665434 11.460777 17.498151 25.275107 17.498151 41.44299 0 11.665434-3.274508 22.205256-9.823524 31.926452-4.297792 6.139702-17.395823 19.033077-39.191765 38.680124-21.693614 19.749375-36.326571 37.452183-43.591886 53.210752-7.265314 15.758569-10.949136 35.81493-10.949136 60.27141 0 2.353553 0.102328 9.004897 0.306985 19.749376h67.946038c-0.409313-22.819227 1.432597-38.680124 5.218747-47.582692 3.78615-8.902568 13.609673-20.568002 29.368242-35.098631 30.493854-28.140302 50.447886-50.447886 59.759768-66.718098 9.311882-16.372539 13.916658-33.666034 13.916659-51.982812 0-33.052064-12.688718-62.113321-38.066154-86.979114-25.479764-24.968122-59.65744-37.452183-102.635355-37.452184z" p-id="2403"></path></svg>